<svg xmlns="http://www.w3.org/2000/svg" viewBox="0 0 512 512">
  <defs>
    <linearGradient id="g" x1="0%" y1="0%" x2="100%" y2="100%">
      <stop offset="0%" stop-color="#8b5cf6"/>
      <stop offset="100%" stop-color="#d946ef"/>
    </linearGradient>
  </defs>
  <rect width="512" height="512" rx="110" fill="url(#g)"/>
  <!-- Sparkle star -->
  <g fill="white" transform="translate(256,210)">
    <polygon points="0,-90 18,-18 90,0 18,18 0,90 -18,18 -90,0 -18,-18" opacity="1"/>
    <polygon points="0,-42 8,-8 42,0 8,8 0,42 -8,8 -42,0 -8,-8" transform="translate(100,70)" opacity="0.6"/>
    <polygon points="0,-28 6,-6 28,0 6,6 0,28 -6,6 -28,0 -6,-6" transform="translate(-95,65)" opacity="0.45"/>
  </g>
  <!-- € symbol -->
  <text x="256" y="390" text-anchor="middle" font-family="-apple-system,BlinkMacSystemFont,sans-serif" font-weight="900" font-size="110" fill="white" opacity="0.95">€</text>
</svg>
